<?xml version="1.0" encoding="iso-8859-1"?>
<!-- Generator: Adobe Illustrator 19.0.0, SVG Export Plug-In . SVG Version: 6.00 Build 0)  -->
<svg version="1.1" id="Capa_1" xmlns="http://www.w3.org/2000/svg" xmlns:xlink="http://www.w3.org/1999/xlink" x="0px" y="0px"
	 viewBox="0 0 512 512" style="enable-background:new 0 0 512 512;" xml:space="preserve">
<g>
	<g>
		<path style="fill:#A5A5A4;" d="M123.38,374.628l-45.559,87.214c-2.111,4.08-5.759,7.152-10.14,8.536
			c-4.38,1.384-9.132,0.967-13.204-1.16c-5.735-3.025-9.337-8.963-9.372-15.447c0.033-2.781,0.717-5.515,1.996-7.984l45.906-87.995
			C102.646,364.239,112.806,369.871,123.38,374.628z"/>
		<path style="fill:#A5A5A4;" d="M457.482,469.565c-2.469,1.279-5.203,1.963-7.984,1.996c-6.461-0.037-12.372-3.644-15.36-9.372
			l-45.733-87.561c6.922-3.074,13.671-6.522,20.22-10.327v-0.087c3.471-2.083,6.856-4.165,10.066-6.422l46.167,88.342
			C469.273,454.643,465.975,465.12,457.482,469.565z"/>
	</g>
	<path style="fill:#CC4B4C;" d="M498.963,213.478c0-42.956-108.735-77.755-242.983-77.755c-134.161,0-242.896,34.799-242.896,77.755
		c0,0-4.773,95.892,79.924,152.993c9.639,6.446,19.798,12.078,30.373,16.835c36.484,15.458,75.623,23.681,115.243,24.212h34.712
		c35.535-0.678,70.705-7.307,104.049-19.612c3.818-1.475,7.463-2.951,11.021-4.599c6.922-3.074,13.671-6.522,20.22-10.327v-0.087
		c3.471-2.083,6.856-4.165,10.066-6.422c80.532-53.89,80.445-142.926,80.184-152.212
		C498.948,214.006,498.977,213.742,498.963,213.478z"/>
	<path style="fill:#802F34;" d="M498.963,213.478c0.014,0.263-0.015,0.527-0.087,0.781c-1.215,42.609-109.429,76.974-242.896,76.974
		c-134.161,0-242.896-34.799-242.896-77.755s108.735-77.755,242.896-77.755C390.228,135.724,498.963,170.523,498.963,213.478z"/>
	<g>
		<path style="fill:#FB7B76;" d="M114.59,176.102c-1.627-1.628-3.834-2.542-6.136-2.542s-4.509,0.915-6.136,2.542l-43.39,43.39
			c-2.215,2.187-3.088,5.394-2.289,8.402c0.799,3.009,3.149,5.358,6.158,6.158c3.009,0.799,6.215-0.074,8.402-2.289l43.39-43.39
			c1.628-1.627,2.542-3.834,2.542-6.135S116.217,177.729,114.59,176.102z"/>
		<path style="fill:#FB7B76;" d="M175.335,167.424c-1.627-1.628-3.834-2.542-6.136-2.542c-2.301,0-4.509,0.915-6.136,2.542
			L93.64,236.848c-2.215,2.187-3.088,5.394-2.289,8.402c0.799,3.009,3.149,5.358,6.158,6.158c3.009,0.799,6.215-0.074,8.402-2.289
			l69.424-69.424c1.628-1.627,2.542-3.834,2.542-6.135S176.963,169.051,175.335,167.424z"/>
		<path style="fill:#FB7B76;" d="M236.081,158.747c-1.627-1.628-3.834-2.542-6.136-2.542c-2.301,0-4.509,0.915-6.136,2.542
			l-86.78,86.78c-2.215,2.187-3.088,5.394-2.289,8.402c0.799,3.009,3.149,5.358,6.158,6.158c3.009,0.799,6.215-0.074,8.402-2.289
			l86.78-86.78c1.628-1.627,2.542-3.834,2.542-6.135S237.709,160.373,236.081,158.747z"/>
		<path style="fill:#FB7B76;" d="M288.149,158.747c-1.627-1.628-3.834-2.542-6.136-2.542c-2.301,0-4.509,0.915-6.136,2.542
			l-95.458,95.458c-2.215,2.187-3.088,5.394-2.289,8.402c0.799,3.009,3.149,5.358,6.158,6.158c3.009,0.799,6.215-0.074,8.402-2.289
			l95.458-95.458c1.628-1.627,2.542-3.834,2.542-6.135S289.777,160.373,288.149,158.747z"/>
		<path style="fill:#FB7B76;" d="M331.539,167.424c-1.627-1.628-3.834-2.542-6.136-2.542s-4.509,0.915-6.136,2.542l-86.78,86.78
			c-2.215,2.187-3.088,5.394-2.289,8.402c0.799,3.009,3.149,5.358,6.158,6.158c3.009,0.799,6.215-0.074,8.402-2.289l86.78-86.78
			c1.628-1.627,2.542-3.834,2.542-6.135S333.166,169.051,331.539,167.424z"/>
		<path style="fill:#FB7B76;" d="M374.928,176.102c-1.627-1.628-3.834-2.542-6.136-2.542s-4.509,0.915-6.136,2.542l-78.102,78.102
			c-2.215,2.187-3.088,5.394-2.289,8.402c0.799,3.009,3.149,5.358,6.158,6.158c3.009,0.799,6.215-0.074,8.402-2.289l78.102-78.102
			c1.628-1.627,2.542-3.834,2.542-6.135S376.556,177.729,374.928,176.102z"/>
		<path style="fill:#FB7B76;" d="M426.996,176.102c-1.627-1.628-3.834-2.542-6.136-2.542c-2.301,0-4.509,0.915-6.136,2.542
			l-69.424,69.424c-2.215,2.187-3.088,5.394-2.289,8.402c0.799,3.009,3.149,5.358,6.158,6.158c3.009,0.799,6.215-0.074,8.402-2.289
			l69.424-69.424c1.628-1.627,2.542-3.834,2.542-6.135S428.624,177.729,426.996,176.102z"/>
		<path style="fill:#FB7B76;" d="M440.76,202.136l-34.712,34.712c-2.225,2.185-3.106,5.396-2.308,8.411
			c0.798,3.015,3.153,5.37,6.168,6.168c3.015,0.798,6.226-0.083,8.411-2.308l34.712-34.712c2.225-2.185,3.106-5.396,2.308-8.411
			c-0.798-3.015-3.153-5.37-6.168-6.168C446.156,199.03,442.945,199.911,440.76,202.136z"/>
	</g>
	<g>
		<path style="fill:#CBB292;" d="M215.437,3.111l-20.835,24.915c-10.685,12.752-10.747,31.312-0.148,44.136l0.165,0.203
			c5.338,6.377,5.34,15.663,0.004,22.042l-3.483,4.161c-1.989,2.377-2.559,5.634-1.496,8.545c1.064,2.911,3.6,5.033,6.653,5.568
			c3.053,0.534,6.159-0.601,8.148-2.977l3.487-4.161c10.68-12.75,10.744-31.304,0.153-44.127l-0.169-0.212
			c-5.343-6.376-5.343-15.666,0-22.042l20.835-24.915c1.989-2.378,2.558-5.637,1.493-8.549s-3.603-5.034-6.657-5.568
			C220.533-0.404,217.426,0.732,215.437,3.111z"/>
		<path style="fill:#CBB292;" d="M267.505,3.111L246.67,28.026c-10.685,12.752-10.747,31.312-0.148,44.136l0.165,0.203
			c5.338,6.377,5.34,15.663,0.004,22.042l-3.483,4.161c-1.989,2.377-2.559,5.634-1.496,8.545c1.064,2.911,3.6,5.033,6.653,5.568
			c3.053,0.534,6.159-0.601,8.148-2.977l3.487-4.161c10.68-12.75,10.744-31.304,0.153-44.127l-0.169-0.212
			c-5.343-6.376-5.343-15.666,0-22.042l20.835-24.915c3.075-3.676,2.587-9.15-1.089-12.225S270.58-0.566,267.505,3.111z"/>
		<path style="fill:#CBB292;" d="M332.886,14.246c3.075-3.676,2.587-9.15-1.089-12.225c-3.676-3.075-9.15-2.587-12.225,1.089
			l-20.835,24.915c-10.685,12.752-10.747,31.312-0.148,44.136l0.165,0.203c5.338,6.377,5.34,15.663,0.004,22.042l-3.483,4.161
			c-3.075,3.674-2.589,9.145,1.085,12.22c3.674,3.075,9.145,2.589,12.22-1.085l3.487-4.161c10.68-12.75,10.744-31.304,0.153-44.127
			l-0.169-0.212c-5.343-6.376-5.343-15.666,0-22.042L332.886,14.246z"/>
	</g>
	<path style="fill:#A5A5A4;" d="M255.98,364.475L255.98,364.475c9.585,0,17.356,7.771,17.356,17.356v112.814
		c0,9.585-7.771,17.356-17.356,17.356l0,0c-9.585,0-17.356-7.771-17.356-17.356V381.831
		C238.624,372.246,246.394,364.475,255.98,364.475z"/>
</g>
<g>
</g>
<g>
</g>
<g>
</g>
<g>
</g>
<g>
</g>
<g>
</g>
<g>
</g>
<g>
</g>
<g>
</g>
<g>
</g>
<g>
</g>
<g>
</g>
<g>
</g>
<g>
</g>
<g>
</g>
</svg>
