<svg height="512pt" viewBox="-10 0 511 512" width="512pt" xmlns="http://www.w3.org/2000/svg"><path d="m159.007812 186.9375v-4.984375h-23.082031c-10.199219 0-18.496093-8.207031-18.496093-18.296875v-43.941406h41.578124v-26.582032h-61.976562c-3.578125 0-6.480469 2.871094-6.480469 6.410157v64.113281c0 24.75 20.355469 44.878906 45.375 44.878906h25.097657c-1.324219-7.003906-2.015626-14.222656-2.015626-21.597656zm0 0" fill="#fcdb67"/><path d="m378.742188 139.300781c-2.015626-1.523437-3.714844-4.9375-3.714844-7.460937v-75.726563h-210.421875c-3.726563 0-6.75 2.992188-6.75 6.675781v124.148438c0 58.261719 43.117187 106.742188 99.453125 115.878906v58.457032h38.566406v-58.457032c35.328125-5.726562 65.453125-26.929687 83.011719-56.308594-8.148438-10.445312-13.011719-23.515624-13.011719-37.695312 0-22.109375 12.078125-42.679688 31.519531-53.683594l1.328125-.75zm0 0" fill="#ffc502"/><path d="m330.226562 360.113281h-87.769531c5.09375 12.65625 7.90625 26.464844 7.90625 40.917969 0 16.1875-3.519531 31.566406-9.828125 45.414062h105.160156v-70.878906c0-8.5-6.960937-15.453125-15.46875-15.453125zm0 0" fill="#fcdb67"/><path d="m364.789062 445.445312h-123.8125c-6.308593 14.226563-15.550781 26.878907-26.957031 37.175782h150.769531c2.832032 0 5.152344-2.316406 5.152344-5.148438v-26.875c.003906-2.832031-2.320312-5.152344-5.152344-5.152344zm0 0" fill="#ffc502"/><path d="m305.40625 380.84375h-56.910156c.914062 4.894531 1.503906 9.902344 1.742187 15h55.167969c4.140625 0 7.5-3.355469 7.5-7.5 0-4.140625-3.359375-7.5-7.5-7.5zm0 0" fill="#775436"/><path d="m296.542969 407.421875h-39.902344c-3.019531 0-5.613281 1.789063-6.804687 4.355469-.148438 1.546875-.335938 3.082031-.550782 4.609375.683594 3.441406 3.714844 6.035156 7.351563 6.035156h39.90625c4.140625 0 7.5-3.359375 7.5-7.5s-3.355469-7.5-7.5-7.5zm0 0" fill="#775436"/><path d="m304.835938 218.351562c-1.300782 0-2.605469-.304687-3.800782-.925781l-24.441406-12.652343-24.441406 12.652343c-1.195313.621094-2.503906.925781-3.804688.925781-1.691406 0-3.375-.519531-4.800781-1.539062-2.515625-1.796875-3.777344-4.847656-3.25-7.867188l4.667969-26.796874-19.773438-18.976563c-2.230468-2.136719-3.027344-5.335937-2.066406-8.246094.960938-2.910156 3.515625-5.035156 6.59375-5.476562l27.328125-3.910157 12.21875-24.378906c1.378906-2.746094 4.21875-4.484375 7.328125-4.484375s5.949219 1.738281 7.324219 4.484375l12.222656 24.378906 27.328125 3.910157c3.074219.441406 5.632812 2.566406 6.59375 5.476562.960938 2.910157.160156 6.105469-2.066406 8.246094l-19.773438 18.976563 4.667969 26.796874c.523437 3.019532-.734375 6.070313-3.25 7.867188-1.425781 1.019531-3.109375 1.539062-4.804687 1.539062zm0 0" fill="#f7931e"/><path d="m478.667969 89.890625-46.148438 34.828125c-2.265625 1.707031-5.96875 1.707031-8.230469 0l-46.148437-34.828125c-2.261719-1.707031-4.113281-5.421875-4.113281-8.253906v50.207031c0 2.832031 1.851562 6.546875 4.113281 8.253906l19.652344 14.828125c9.054687-5.046875 19.496093-7.945312 30.609375-7.945312 11.117187 0 21.558594 2.894531 30.613281 7.945312l19.652344-14.828125c2.265625-1.707031 4.117187-5.421875 4.117187-8.257812v-50.203125c0 2.832031-1.851562 6.546875-4.117187 8.253906zm0 0" fill="#fb8276"/><path d="m374.027344 10.945312c0-2.835937 2.320312-5.152343 5.15625-5.152343h98.445312c2.835938 0 5.15625 2.316406 5.15625 5.152343v71.769532c0 2.832031-1.855468 6.546875-4.117187 8.253906l-46.148438 34.828125c-2.265625 1.707031-5.96875 1.707031-8.230469 0l-46.148437-34.828125c-2.261719-1.707031-4.113281-5.421875-4.113281-8.253906zm0 0" fill="#ef5050"/><path d="m491.933594 208.8125c0 34.703125-28.441406 62.835938-63.53125 62.835938-35.082032 0-63.527344-28.132813-63.527344-62.835938 0-34.699219 28.445312-62.832031 63.527344-62.832031 35.089844 0 63.53125 28.132812 63.53125 62.832031zm0 0" fill="#c6a07d"/><path d="m466.089844 208.8125c0 20.585938-16.871094 37.277344-37.6875 37.277344-20.8125 0-37.683594-16.691406-37.683594-37.277344s16.871094-37.273438 37.683594-37.273438c20.816406 0 37.6875 16.6875 37.6875 37.273438zm0 0" fill="#775436"/><path d="m140.328125 290.0625c-53.8125 0-98.683594 38.269531-108.859375 89.066406l9.757812-.023437c2.59375 0 6.34375 1.492187 8.207032 3.257812l16.605468 15.738281c.792969.753907 1.230469 1.753907 1.230469 2.820313s-.4375 2.066406-1.230469 2.820313l-16.710937 15.847656c-1.867187 1.773437-5.628906 3.273437-8.207031 3.28125l-9.664063.023437c10.160157 50.816407 55.042969 89.105469 108.871094 89.105469 61.324219 0 111.035156-49.679688 111.035156-110.96875 0-61.285156-49.710937-110.96875-111.035156-110.96875zm0 0" fill="#ef5050"/><path d="m140.328125 324.472656c-40.039063 0-72.96875 30.878906-76.285156 70.058594h75.230469c3.582031 0 6.5 2.917969 6.5 6.5 0 3.585938-2.917969 6.5-6.5 6.5h-75.230469c3.316406 39.179688 36.246093 70.0625 76.285156 70.0625 42.242187 0 76.605469-34.347656 76.605469-76.5625s-34.363282-76.558594-76.605469-76.558594zm0 0" fill="#fff"/><path d="m140.328125 358.878906c-21.039063 0-38.53125 15.484375-41.667969 35.652344h40.609375c3.585938 0 6.5 2.914062 6.5 6.5 0 3.582031-2.914062 6.5-6.5 6.5h-40.609375c3.136719 20.167969 20.628906 35.652344 41.667969 35.652344 23.261719 0 42.175781-18.910156 42.175781-42.152344s-18.914062-42.152344-42.175781-42.152344zm0 0" fill="#ef5050"/><path d="m140.328125 385.789062c-6.078125 0-11.320313 3.582032-13.769531 8.742188h12.710937c3.585938 0 6.5 2.914062 6.5 6.5 0 3.582031-2.914062 6.5-6.5 6.5h-12.710937c2.445312 5.15625 7.691406 8.742188 13.769531 8.742188 8.410156 0 15.25-6.835938 15.25-15.242188 0-8.402344-6.839844-15.242188-15.25-15.242188zm0 0" fill="#fff"/><path d="m139.273438 393.53125h-78.054688l4.820312 4.570312c.792969.753907 1.230469 1.753907 1.230469 2.820313s-.4375 2.066406-1.230469 2.820313l-5.050781 4.789062h78.28125c4.144531 0 7.5-3.359375 7.5-7.5.003907-4.140625-3.355469-7.5-7.496093-7.5zm0 0" fill="#08375e"/><path d="m3.160156 423.957031c-2.835937.007813-3.511718-1.621093-1.5-3.621093l15.785156-15.675782c2.011719-1.996094 2.011719-5.261718 0-7.261718l-15.679687-15.566407c-2.011719-1.996093-1.335937-3.636719 1.5-3.644531l37.960937-.082031c2.832032-.007813 6.835938 1.582031 8.894532 3.53125l16.605468 15.738281c2.058594 1.949219 2.058594 5.140625 0 7.089844l-16.710937 15.847656c-2.054687 1.949219-6.058594 3.550781-8.894531 3.558594zm0 0" fill="#75eae7"/><g fill="#f7931e"><path d="m384.078125 363.140625c-1.503906 0-2.863281-.90625-3.441406-2.296875-7.082031-17.097656-12.308594-22.320312-29.417969-29.402344-1.386719-.574218-2.292969-1.933594-2.292969-3.433594 0-1.503906.90625-2.859374 2.292969-3.4375 17.109375-7.082031 22.335938-12.304687 29.417969-29.402343.578125-1.390625 1.9375-2.296875 3.441406-2.296875s2.859375.90625 3.4375 2.296875c7.085937 17.097656 12.3125 22.320312 29.417969 29.402343 1.390625.578126 2.296875 1.933594 2.296875 3.4375 0 1.503907-.90625 2.859376-2.296875 3.433594-17.105469 7.082032-22.332032 12.304688-29.417969 29.402344-.578125 1.390625-1.933594 2.296875-3.4375 2.296875zm0 0"/><path d="m128.464844 57.738281c-1.238282 0-2.355469-.746093-2.828125-1.886719-5.820313-14.050781-10.113281-18.339843-24.171875-24.160156-1.140625-.472656-1.886719-1.585937-1.886719-2.824218 0-1.234376.746094-2.347657 1.886719-2.820313 14.058594-5.820313 18.351562-10.113281 24.171875-24.160156.476562-1.140625 1.589843-1.886719 2.828125-1.886719 1.234375 0 2.351562.746094 2.820312 1.886719 5.824219 14.046875 10.117188 18.339843 24.175782 24.160156 1.144531.472656 1.886718 1.585937 1.886718 2.820313 0 1.238281-.742187 2.351562-1.886718 2.824218-14.058594 5.820313-18.351563 10.109375-24.175782 24.160156-.46875 1.140626-1.585937 1.886719-2.820312 1.886719zm0 0"/></g></svg>