<svg height="480pt" viewBox="0 0 480 480" width="480pt" xmlns="http://www.w3.org/2000/svg"><path d="m246.703125 27.414062c2.199219-7.308593 9.253906-12.046874 16.851563-11.320312 7.597656.730469 13.625 6.722656 14.390624 14.316406.769532 7.59375-3.933593 14.675782-11.234374 16.910156-7.296876 2.234376-15.160157-.996093-18.773438-7.71875-2.027344-3.738281-2.46875-8.128906-1.234375-12.195312zm-7.6875 81.242188c-101.648437-30.503906-153.535156-65.144531-152.910156-74.976562 3.613281-6.503907 51.734375-11.023438 149.183593 15.640624 4.054688 6.398438 10.265626 11.132813 17.511719 13.34375 3.003907.894532 6.125 1.347657 9.261719 1.335938 4.453125-.019531 8.855469-.976562 12.914062-2.808594 96 31.34375 133.597657 61.542969 133.0625 68.800782-4.949218 8.792968-67.375 9.144531-169.023437-21.335938zm0 0"/><path d="m168.558594 145.496094c-5.699219 2.789062-12.582032.425781-15.371094-5.273438-2.792969-5.703125-.433594-12.585937 5.265625-15.378906s12.582031-.4375 15.378906 5.261719c2.792969 5.703125.433594 12.597656-5.273437 15.390625zm0 0"/><path d="m24 40v40c.027344 22.082031 17.917969 39.972656 40 40h8v-16h-8c-13.253906 0-24-10.746094-24-24v-40c-.027344-22.082031-17.917969-39.9726562-40-40v16c13.253906 0 24 10.746094 24 24zm0 0"/><path d="m128 184h8v-16h-8c-13.253906 0-24-10.746094-24-24v-40c-.027344-22.082031-17.917969-39.972656-40-40v16c13.253906 0 24 10.746094 24 24v40c.027344 22.082031 17.917969 39.972656 40 40zm0 0"/><path d="m440 112v40c0 13.253906-10.746094 24-24 24h-8v16h8c22.082031-.027344 39.972656-17.917969 40-40v-40c0-13.253906 10.746094-24 24-24v-16c-22.082031.027344-39.972656 17.917969-40 40zm0 0"/><path d="m424 48c0-13.253906 10.746094-24 24-24v-16c-22.082031.027344-39.972656 17.917969-40 40v40h16zm0 0"/><path d="m252 160c0 6.628906-5.371094 12-12 12s-12-5.371094-12-12 5.371094-12 12-12 12 5.371094 12 12zm0 0"/><path d="m347.503906 187.503906c0 6.355469-5.152344 11.503906-11.503906 11.503906s-11.503906-5.148437-11.503906-11.503906c0-6.351562 5.152344-11.503906 11.503906-11.503906s11.503906 5.152344 11.503906 11.503906zm0 0"/><path d="m370.230469 252c0-6.628906-58.304688-12-130.230469-12s-130.230469 5.371094-130.230469 12 58.304688 12 130.230469 12 130.230469-5.371094 130.230469-12zm0 0"/><path d="m82.183594 243.503906c31.710937-12.054687 91.585937-19.503906 157.816406-19.503906s126.105469 7.449219 157.816406 19.503906c6.085938-2.71875 9.597656-5.320312 10.152344-7.503906l-.121094-.191406c-2.3125-4.289063-12.191406-9.175782-28.632812-13.648438-.976563-.265625-1.984375-.519531-3-.800781-1.597656-.414063-3.253906-.800781-4.96875-1.222656-2-.464844-4.085938-.921875-6.238282-1.367188-1.046874-.226562-2.097656-.449219-3.199218-.664062-2.738282-.546875-5.601563-1.082031-8.585938-1.601563l-2.398437-.414062c-3.199219-.546875-6.535157-1.066406-9.984375-1.601563l-2.472656-.367187c-3.398438-.480469-6.96875-.929688-10.605469-1.359375l-3.203125-.394531c-3.4375-.390626-7.039063-.742188-10.6875-1.09375-1.429688-.136719-2.824219-.289063-4.285156-.417969-3.449219-.304688-7.058594-.574219-10.675782-.800781-1.773437-.125-3.496094-.269532-5.300781-.390626-3.503906-.222656-7.203125-.40625-10.824219-.59375-2.058594-.101562-4.050781-.230468-6.144531-.316406-3.855469-.167968-7.871094-.28125-11.878906-.394531-2.007813-.054687-3.9375-.136719-5.984375-.183594-6.058594-.105469-12.320313-.175781-18.777344-.175781s-12.703125.070312-18.800781.199219c-2.039063.046875-3.960938.128906-5.960938.183593-4 .113282-8 .226563-11.878906.386719-2.070313.085938-4.039063.214844-6.070313.320313-3.679687.183594-7.367187.367187-10.898437.597656-1.71875.113281-3.34375.25-5.023437.367188-3.734376.273437-7.464844.554687-11.023438.867187-1.253906.109375-2.398438.238281-3.671875.359375-3.886719.367188-7.726563.75-11.382813 1.167969l-2.304687.277343c-4 .472657-7.914063.96875-11.625 1.496094l-1.207031.175782c-4 .570312-7.800782 1.160156-11.433594 1.785156l-.640625.113281c-3.6875.632813-7.199219 1.289063-10.550781 1.96875l-.839844.175781c-3.078125.621094-6.011719 1.265625-8.800781 1.925782l-2.078125.511718c-2.113282.511719-4.113282 1.042969-6.023438 1.601563-1.453125.398437-2.847656.804687-4.191406 1.214843l-2.617188.800782c-11.777343 3.816406-18.9375 7.792968-20.855468 11.351562l-.121094.152344c.59375 2.199219 4.121094 4.800781 10.183594 7.503906zm0 0"/><path d="m456 240h-32v16h32c4.417969 0 8-3.582031 8-8s-3.582031-8-8-8zm0 0"/><path d="m400.710938 259.398438-.183594.066406c-24.722656 8.796875-50.507813 14.257812-76.671875 16.246094h-.320313c-2.488281.261718-4.984375.511718-7.488281.753906-20.359375 1.976562-42.597656 3.199218-65.789063 3.429687-3.503906.105469-6.953124.105469-10.257812.105469s-6.753906 0-10.257812-.070312c-23.199219-.273438-45.429688-1.457032-65.789063-3.433594-2.503906-.238282-5-.492188-7.488281-.753906h-.320313c-26.164062-1.984376-51.949219-7.449219-76.671875-16.246094l-.183594-.0625-.082031-.050782c-2.589843-1.101562-4.992187-2.257812-7.199219-3.460937v50.222656c10.71875 5.039063 22.042969 8.664063 33.695313 10.785157l-3.390625 15.636718c-10.332031-2.109375-20.472656-5.074218-30.3125-8.871094v14.402344c16.136719 7.042969 33.195312 11.753906 50.664062 13.980469l-2.609374 15.792969c-16.0625-2.40625-31.847657-6.382813-47.132813-11.871094 6.015625 43.503906 43.160156 75.921875 87.078125 76h160c43.917969-.078125 81.0625-32.496094 87.078125-76-15.285156 5.484375-31.074219 9.457031-47.132813 11.863281l-2.609374-15.792969c17.464843-2.21875 34.523437-6.914062 50.664062-13.949218v-14.402344c-24.800781 10.023438-63.847656 14.96875-87.257812 17.136719l-1.484376-15.925781c40.742188-3.792969 73.222657-10.707032 88.742188-18.753907v-50.289062c-2.21875 1.210937-4.617188 2.367187-7.199219 3.464843zm-160.78125 84.601562c-8.234376-.078125-16.328126-.273438-24.226563-.566406l.59375-16c7.757813.292968 15.683594.476562 23.773437.558594zm32.285156-.304688-.429688-16c8.101563-.222656 16.039063-.566406 23.75-1.015624l.929688 16c-7.878906.425781-15.960938.753906-24.25.984374zm62.847656 11.578126 1.875 15.886718c-10.304688 1.214844-21.203125 2.222656-32.394531 2.992188l-1.085938-15.960938c10.941407-.785156 21.550781-1.765625 31.605469-2.953125zm0 0"/><path d="m16 248c0 4.417969 3.582031 8 8 8h32v-16h-32c-4.417969 0-8 3.582031-8 8zm0 0"/><path d="m328 464h16v16h-16zm0 0"/><path d="m232 464h16v16h-16zm0 0"/><path d="m280 464h16v16h-16zm0 0"/><path d="m184 464h16v16h-16zm0 0"/><path d="m136 464h16v16h-16zm0 0"/><path d="m376 448h16v32h-16zm0 0"/><path d="m88 448h16v32h-16zm0 0"/></svg>