<svg height="512pt" viewBox="0 -8 512 511" width="512pt" xmlns="http://www.w3.org/2000/svg"><path d="m369.835938 465.113281-72.628907 10.300781-72.628906-10.300781 10.304687-61.8125 62.324219-10.300781 62.324219 10.300781zm0 0" fill="#afafaf"/><path d="m369.835938 465.113281h-30.90625l-10.300782-61.8125h30.902344zm0 0" fill="#919191"/><path d="m512 356.941406h-429.585938v-277.117187c0-11.378907 9.226563-20.605469 20.605469-20.605469h388.375c11.378907 0 20.605469 9.226562 20.605469 20.605469zm0 0" fill="#8175ba"/><path d="m512 79.824219v266.816406h-30.90625v-266.816406c0-11.382813-9.21875-20.605469-20.601562-20.605469h30.902343c11.386719.003906 20.605469 9.222656 20.605469 20.605469zm0 0" fill="#575293"/><path d="m475.945312 315.734375h-357.472656c-2.847656 0-5.152344-2.304687-5.152344-5.148437v-215.308594c0-2.84375 2.304688-5.152344 5.152344-5.152344h357.472656c2.84375 0 5.148438 2.308594 5.148438 5.152344v215.308594c0 2.84375-2.304688 5.148437-5.148438 5.148437zm0 0" fill="#fff"/><path d="m169.980469 315.734375v-126.195313h-56.660157v121.046876c0 2.84375 2.304688 5.148437 5.152344 5.148437zm0 0" fill="#e8e8e8"/><path d="m481.09375 121.03125h-259.605469v-30.90625h254.457031c2.84375 0 5.148438 2.308594 5.148438 5.152344zm0 0" fill="#d8d8d8"/><path d="m390.4375 496.019531h-186.460938c-8.535156 0-15.453124-6.917969-15.453124-15.453125s6.917968-15.453125 15.453124-15.453125h186.460938c8.535156 0 15.453125 6.917969 15.453125 15.453125 0 8.53125-6.917969 15.453125-15.453125 15.453125zm0 0" fill="#d8d8d8"/><path d="m405.890625 480.566406c0 4.261719-1.730469 8.125-4.53125 10.917969-2.792969 2.800781-6.65625 4.535156-10.921875 4.535156h-30.90625c4.265625 0 8.128906-1.734375 10.921875-4.535156 2.800781-2.792969 4.53125-6.65625 4.53125-10.917969 0-6.851562-4.460937-12.664062-10.628906-14.679687-1.515625-.507813-3.144531-.773438-4.824219-.773438h30.90625c8.53125 0 15.453125 6.921875 15.453125 15.453125zm0 0" fill="#afafaf"/><path d="m491.394531 403.300781h-388.375c-11.378906 0-20.605469-9.226562-20.605469-20.605469v-36.054687h429.585938v36.054687c0 11.382813-9.226562 20.605469-20.605469 20.605469zm0 0" fill="#d8d8d8"/><path d="m512 346.640625v36.054687c0 11.382813-9.21875 20.605469-20.605469 20.605469h-30.902343c11.382812 0 20.601562-9.21875 20.601562-20.605469v-36.054687zm0 0" fill="#afafaf"/><path d="m180.28125 221.988281h-139.074219c-22.757812 0-41.207031-18.449219-41.207031-41.207031v-139.074219c0-22.757812 18.449219-41.207031 41.207031-41.207031h139.074219c22.757812 0 41.207031 18.449219 41.207031 41.207031v139.074219c0 22.757812-18.449219 41.207031-41.207031 41.207031zm0 0" fill="#f2d67c"/><path d="m221.488281 41.707031v139.074219c0 22.757812-18.449219 41.207031-41.207031 41.207031h-30.902344c22.753906 0 41.207032-18.449219 41.207032-41.207031v-139.074219c0-22.757812-18.453126-41.207031-41.207032-41.207031h30.902344c22.757812 0 41.207031 18.449219 41.207031 41.207031zm0 0" fill="#e2b061"/><path d="m185.433594 115.671875v-8.855469c0-3.261718-2.644532-5.902344-5.90625-5.902344h-1.570313c-6.171875 0-11.671875-3.847656-13.835937-9.628906-.457032-1.222656-.957032-2.425781-1.492188-3.609375-2.566406-5.640625-1.433594-12.269531 2.945313-16.648437l1.113281-1.113282c2.304688-2.304687 2.304688-6.042968 0-8.351562l-6.261719-6.261719c-2.304687-2.304687-6.042969-2.304687-8.351562 0l-1.109375 1.113281c-4.382813 4.382813-11.011719 5.515626-16.652344 2.949219-1.179688-.539062-2.386719-1.039062-3.609375-1.496093-5.78125-2.164063-9.625-7.664063-9.625-13.835938v-1.570312c0-3.261719-2.644531-5.902344-5.90625-5.902344h-8.855469c-3.261718 0-5.902344 2.640625-5.902344 5.902344v1.570312c0 6.171875-3.847656 11.671875-9.628906 13.835938-1.222656.457031-2.425781.957031-3.609375 1.496093-5.640625 2.566407-12.269531 1.433594-16.648437-2.949219l-1.113282-1.113281c-2.304687-2.304687-6.042968-2.304687-8.351562 0l-6.261719 6.261719c-2.304687 2.308594-2.304687 6.046875 0 8.351562l1.113281 1.113282c4.382813 4.378906 5.515626 11.007812 2.949219 16.648437-.539062 1.183594-1.039062 2.386719-1.496093 3.609375-2.164063 5.78125-7.664063 9.628906-13.835938 9.628906h-1.570312c-3.261719 0-5.902344 2.640626-5.902344 5.902344v8.855469c0 3.261719 2.640625 5.90625 5.902344 5.90625h1.570312c6.171875 0 11.671875 3.847656 13.835938 9.625.457031 1.222656.957031 2.429687 1.496093 3.609375 2.566407 5.640625 1.433594 12.269531-2.949219 16.652344l-1.113281 1.109375c-2.304687 2.308593-2.304687 6.046875 0 8.351562l6.261719 6.261719c2.308594 2.304688 6.046875 2.304688 8.351562 0l1.113282-1.113281c4.378906-4.378907 11.007812-5.511719 16.648437-2.945313 1.183594.535156 2.386719 1.035156 3.609375 1.492188 5.78125 2.164062 9.628906 7.664062 9.628906 13.835937v1.570313c0 3.261718 2.640626 5.90625 5.902344 5.90625h8.855469c3.261719 0 5.90625-2.644532 5.90625-5.90625v-1.570313c0-6.171875 3.847656-11.671875 9.625-13.835937 1.222656-.457032 2.429687-.957032 3.609375-1.492188 5.640625-2.566406 12.269531-1.433594 16.652344 2.945313l1.109375 1.113281c2.308593 2.304688 6.046875 2.304688 8.351562 0l6.261719-6.261719c2.304688-2.304687 2.304688-6.042969 0-8.351562l-1.113281-1.109375c-4.378907-4.382813-5.511719-11.011719-2.945313-16.652344.535156-1.179688 1.035156-2.386719 1.492188-3.609375 2.164062-5.78125 7.664062-9.625 13.835937-9.625h1.570313c3.261718 0 5.90625-2.644531 5.90625-5.90625zm0 0" fill="#fafeff"/><path d="m110.742188 136.484375c-13.9375 0-25.238282-11.300781-25.238282-25.238281 0-13.941406 11.300782-25.238282 25.238282-25.238282 13.941406 0 25.242187 11.296876 25.242187 25.238282 0 13.9375-11.300781 25.238281-25.242187 25.238281zm0 0" fill="#e2b061"/><path d="m355.929688 180.265625h-74.175782c-4.265625 0-7.726562-3.457031-7.726562-7.726563 0-4.265624 3.460937-7.722656 7.726562-7.722656h74.175782c4.265624 0 7.722656 3.457032 7.722656 7.722656 0 4.269532-3.457032 7.726563-7.722656 7.726563zm0 0" fill="#747a89"/><path d="m424.949219 180.265625h-38.117188c-4.265625 0-7.726562-3.457031-7.726562-7.726563 0-4.265624 3.460937-7.722656 7.726562-7.722656h38.117188c4.269531 0 7.726562 3.457032 7.726562 7.722656 0 4.269532-3.457031 7.726563-7.726562 7.726563zm0 0" fill="#747a89"/><g fill="#f2d67c"><path d="m355.929688 211.171875h-30.90625c-4.269532 0-7.726563-3.457031-7.726563-7.726563 0-4.265624 3.460937-7.726562 7.726563-7.726562h30.90625c4.265624 0 7.722656 3.460938 7.722656 7.726562 0 4.269532-3.457032 7.726563-7.722656 7.726563zm0 0"/><path d="m424.949219 211.171875h-38.117188c-4.265625 0-7.726562-3.457031-7.726562-7.726563 0-4.265624 3.460937-7.726562 7.726562-7.726562h38.117188c4.269531 0 7.726562 3.460938 7.726562 7.726562 0 4.269532-3.457031 7.726563-7.726562 7.726563zm0 0"/><path d="m355.929688 242.078125h-30.90625c-4.269532 0-7.726563-3.460937-7.726563-7.726563 0-4.265624 3.460937-7.726562 7.726563-7.726562h30.90625c4.265624 0 7.722656 3.460938 7.722656 7.726562 0 4.265626-3.457032 7.726563-7.722656 7.726563zm0 0"/><path d="m424.949219 242.078125h-38.117188c-4.265625 0-7.726562-3.460937-7.726562-7.726563 0-4.265624 3.460937-7.726562 7.726562-7.726562h38.117188c4.269531 0 7.726562 3.460938 7.726562 7.726562 0 4.265626-3.457031 7.726563-7.726562 7.726563zm0 0"/></g><path d="m355.929688 272.984375h-74.175782c-4.265625 0-7.726562-3.460937-7.726562-7.726563 0-4.269531 3.460937-7.726562 7.726562-7.726562h74.175782c4.265624 0 7.722656 3.457031 7.722656 7.726562 0 4.265626-3.457032 7.726563-7.722656 7.726563zm0 0" fill="#747a89"/><path d="m424.949219 272.984375h-38.117188c-4.265625 0-7.726562-3.460937-7.726562-7.726563 0-4.269531 3.460937-7.726562 7.726562-7.726562h38.117188c4.269531 0 7.726562 3.457031 7.726562 7.726562 0 4.265626-3.457031 7.726563-7.726562 7.726563zm0 0" fill="#747a89"/></svg>