<svg id="Layer_5" enable-background="new 0 0 64 64" height="512" viewBox="0 0 64 64" width="512" xmlns="http://www.w3.org/2000/svg"><path d="m53.781 27h-7.562l-.603-2.416-2.134 1.281-5.347-5.346 1.281-2.136-2.416-.602v-4.781h-9.586l-2 2h-14.414v16h2c1.565 0 3.061.747 4 1.999l1.5 2.001h25.5c2.757 0 5 2.243 5 5v18c0 1.654 1.346 3 3 3s3-1.346 3-3v-33.046l-.616-.37zm-35.181-3.8-1.2 1.6-5.067-3.8 5.066-3.8 1.2 1.6-2.932 2.2zm12.4 7.8h-10v-2h10zm4 0h-2v-2h2zm0-4h-14v-2h14zm0-4h-14v-2h14zm0-4h-14v-2h14zm4.6 13.8-1.2-1.6 2.934-2.2-2.934-2.2 1.2-1.6 5.066 3.8zm13.4 26.2h-2v-2h2zm0-4h-2v-2h2zm0-4h-2v-2h2z"/><path d="m44 37h-26.5l-2.1-2.801c-.563-.751-1.461-1.199-2.4-1.199h-7c-1.654 0-3 1.346-3 3v3h43.816c-.414-1.161-1.514-2-2.816-2zm-37 0h-2v-2h2zm4 0h-2v-2h2zm4 0h-2v-2h2z"/><circle cx="50" cy="14" r="1"/><path d="m47 41h-44v17c0 1.654 1.346 3 3 3h42.002c-.628-.836-1.002-1.875-1.002-3zm-40 12h-2v-2h2zm0-4h-2v-2h2zm0-4h-2v-2h2zm14.64 10.231-1.28 1.537-6.922-5.768 6.922-5.769 1.28 1.537-5.078 4.232zm2.33 4.011-1.94-.484 4-16 1.94.484zm5.67-2.473-1.28-1.537 5.078-4.232-5.078-4.231 1.28-1.537 6.922 5.768zm15.36 2.231h-2v-2h2zm0-4h-2v-2h2zm0-4h-2v-2h2z"/><path d="m26.586 11h10.414v-.781l2.416-.603-1.282-2.136.481-.48h-27.615v6h13.586zm-11.586 0h-2v-2h2zm4 0h-2v-2h2zm4 0h-2v-2h2z"/><path d="m50 9c-2.757 0-5 2.243-5 5s2.243 5 5 5 5-2.243 5-5-2.243-5-5-5zm0 8c-1.654 0-3-1.346-3-3s1.346-3 3-3 3 1.346 3 3-1.346 3-3 3z"/><path d="m59.051 16.706 1.949-.487v-4.438l-2.446-.611-.503-1.22 1.296-2.159-3.138-3.139-2.158 1.296-1.142-.464-.203-.535-.487-1.949h-4.438l-.612 2.452-1.22.496-2.158-1.296-3.138 3.139 1.296 2.159-.503 1.22-2.446.611v4.438l2.446.611.503 1.22-1.296 2.159 3.138 3.139 2.158-1.296 1.142.464.203.535.487 1.949h4.438l.612-2.452 1.22-.496 2.158 1.296 3.138-3.139-1.296-2.159.466-1.139zm-9.051 4.294c-3.86 0-7-3.141-7-7s3.14-7 7-7 7 3.141 7 7-3.14 7-7 7z"/></svg>