<svg height="410pt" viewBox="0 -25 410 410" width="410pt" xmlns="http://www.w3.org/2000/svg"><path d="m410 40v58.089844h-410v-58.089844c0-22.089844 17.910156-40 40-40h330c22.089844 0 40 17.910156 40 40zm0 0" fill="#f8ec7d"/><g fill="#e48e66"><path d="m180.710938 34.5c8.367187.027344 15.125 6.832031 15.097656 15.199219-.027344 8.367187-6.832032 15.128906-15.199219 15.101562-8.367187-.027343-15.125-6.832031-15.097656-15.199219.03125-8.367187 6.832031-15.125 15.199219-15.101562zm0 0"/><path d="m410 98.089844v221.988281c0 22.09375-17.910156 40-40 40h-330c-22.089844 0-40-17.90625-40-40v-221.988281zm0 0"/><path d="m112.648438 34.289062c8.367187.027344 15.128906 6.832032 15.101562 15.199219-.027344 8.367188-6.832031 15.128907-15.199219 15.101563-8.367187-.027344-15.128906-6.832032-15.101562-15.199219.011719-4.019531 1.621093-7.871094 4.46875-10.703125 2.851562-2.832031 6.714843-4.414062 10.730469-4.398438zm0 0"/><path d="m44.589844 34.070312c8.371094.023438 15.136718 6.828126 15.109375 15.199219-.023438 8.371094-6.828125 15.136719-15.199219 15.109375-8.371094-.023437-15.136719-6.828125-15.109375-15.199218.007813-4.019532 1.617187-7.871094 4.46875-10.707032 2.851563-2.832031 6.710937-4.417968 10.730469-4.402344zm0 0"/></g><path d="m160.285156 265.128906c-1.660156.003906-3.269531-.589844-4.535156-1.667968l-45.289062-38.570313c-1.5625-1.332031-2.460938-3.28125-2.460938-5.332031 0-2.050782.898438-4 2.460938-5.328125l45.289062-38.570313c2.945312-2.507812 7.363281-2.152344 9.867188.789063 2.507812 2.945312 2.15625 7.363281-.789063 9.871093l-39.027344 33.238282 39.03125 33.242187c2.234375 1.902344 3.042969 4.996094 2.03125 7.75-1.015625 2.753907-3.636719 4.582031-6.574219 4.578125zm0 0" fill="#af593c"/><path d="m249.714844 265.128906c-2.9375.003906-5.558594-1.824218-6.574219-4.578125-1.011719-2.753906-.203125-5.847656 2.03125-7.75l39.027344-33.242187-39.03125-33.238282c-2.945313-2.507812-3.296875-6.925781-.789063-9.871093 2.503906-2.941407 6.921875-3.296875 9.867188-.789063l45.289062 38.570313c1.5625 1.328125 2.460938 3.277343 2.460938 5.328125 0 2.050781-.898438 4-2.460938 5.332031l-45.289062 38.570313c-1.265625 1.078124-2.871094 1.667968-4.53125 1.667968zm0 0" fill="#af593c"/><path d="m188.96875 294.0625c-2.113281 0-4.109375-.953125-5.441406-2.589844-1.328125-1.640625-1.851563-3.789062-1.417969-5.855468l28.230469-134.039063c.796875-3.785156 4.507812-6.203125 8.292968-5.40625 3.78125.796875 6.203126 4.507813 5.40625 8.292969l-28.230468 134.039062c-.679688 3.234375-3.535156 5.554688-6.839844 5.558594zm0 0" fill="#af593c"/></svg>